<svg width="22" height="23" viewBox="0 0 22 23" fill="none" xmlns="http://www.w3.org/2000/svg">
<g clip-path="url(#clip0_1_17)">
<mask id="mask0_1_17" style="mask-type:luminance" maskUnits="userSpaceOnUse" x="0" y="0" width="22" height="22">
<path d="M21.4844 0.570007H0.36438V21.69H21.4844V0.570007Z" fill="white"/>
</mask>
<g mask="url(#mask0_1_17)">
<path fill-rule="evenodd" clip-rule="evenodd" d="M2.24823 11.13C2.34441 11.2963 2.47192 11.5081 2.62987 11.7526C3.03556 12.3808 3.63637 13.2162 4.41637 14.0482C5.99243 15.7293 8.19595 17.29 10.9244 17.29C13.6529 17.29 15.8563 15.7293 17.4324 14.0482C18.2124 13.2162 18.8132 12.3808 19.2189 11.7526C19.3768 11.5081 19.5043 11.2963 19.6005 11.13C19.5043 10.9638 19.3768 10.752 19.2189 10.5074C18.8132 9.87928 18.2124 9.04389 17.4324 8.21189C15.8563 6.53075 13.6529 4.97002 10.9244 4.97002C8.19595 4.97002 5.99243 6.53075 4.41637 8.21189C3.63637 9.04389 3.03556 9.87928 2.62987 10.5074C2.47192 10.752 2.34441 10.9638 2.24823 11.13ZM20.6044 11.13C21.3915 10.7365 21.3913 10.7361 21.3911 10.7359L21.3897 10.7331L21.3867 10.727L21.3767 10.7074C21.3683 10.6912 21.3565 10.6683 21.3412 10.6393C21.3105 10.5815 21.2661 10.4992 21.2081 10.3961C21.0921 10.1898 20.9213 9.89934 20.6973 9.55262C20.2506 8.86077 19.5863 7.93615 18.7164 7.00815C16.9925 5.16929 14.356 3.21002 10.9244 3.21002C7.49281 3.21002 4.85632 5.16929 3.13239 7.00815C2.2624 7.93615 1.5982 8.86077 1.1514 9.55262C0.927445 9.89934 0.756676 10.1898 0.640675 10.3961C0.58264 10.4992 0.538215 10.5815 0.507603 10.6393C0.492293 10.6683 0.48043 10.6912 0.472037 10.7074L0.46205 10.727L0.459014 10.7331L0.457986 10.7351C0.457824 10.7354 0.457283 10.7365 1.24438 11.13L0.457283 10.7365C0.333412 10.9842 0.333412 11.2758 0.457283 11.5236L1.24438 11.13C0.457283 11.5236 0.457122 11.5232 0.457283 11.5236L0.459014 11.527L0.46205 11.5331L0.472037 11.5526C0.48043 11.5689 0.492293 11.5918 0.507603 11.6207C0.538215 11.6785 0.58264 11.7608 0.640675 11.8639C0.756676 12.0702 0.927445 12.3607 1.1514 12.7074C1.5982 13.3993 2.2624 14.3239 3.13239 15.2519C4.85632 17.0908 7.49281 19.05 10.9244 19.05C14.356 19.05 16.9925 17.0908 18.7164 15.2519C19.5863 14.3239 20.2506 13.3993 20.6973 12.7074C20.9213 12.3607 21.0921 12.0702 21.2081 11.8639C21.2661 11.7608 21.3105 11.6785 21.3412 11.6207C21.3565 11.5918 21.3683 11.5689 21.3767 11.5526L21.3867 11.5331L21.3897 11.527L21.3908 11.525C21.391 11.5246 21.3915 11.5236 20.6044 11.13ZM20.6044 11.13L21.3915 11.5236C21.5154 11.2758 21.515 10.9836 21.3911 10.7359L20.6044 11.13Z" fill="#9B9B9B"/>
<path fill-rule="evenodd" clip-rule="evenodd" d="M10.9244 9.37005C9.95236 9.37005 9.16441 10.158 9.16441 11.13C9.16441 12.1021 9.95236 12.89 10.9244 12.89C11.8964 12.89 12.6844 12.1021 12.6844 11.13C12.6844 10.158 11.8964 9.37005 10.9244 9.37005ZM7.40437 11.13C7.40437 9.186 8.98031 7.61005 10.9244 7.61005C12.8684 7.61005 14.4444 9.186 14.4444 11.13C14.4444 13.0741 12.8684 14.65 10.9244 14.65C8.98031 14.65 7.40437 13.0741 7.40437 11.13Z" fill="#9B9B9B"/>
</g>
</g>
<defs>
<clipPath id="clip0_1_17">
<rect width="22" height="22" fill="white" transform="translate(0 0.130005)"/>
</clipPath>
</defs>
</svg>
