<svg width="18" height="19" viewBox="0 0 18 19" fill="none" xmlns="http://www.w3.org/2000/svg">
<g clip-path="url(#clip0_1_53)">
<path fill-rule="evenodd" clip-rule="evenodd" d="M8.5943 0.130005C13.3404 0.130005 17.1886 3.97816 17.1886 8.72431C17.1886 13.0148 14.0462 16.5705 9.93705 17.2147V11.2105H11.9392L11.9394 11.2092L12.3204 8.72431H9.93705V7.11205C9.93705 6.90906 9.96674 6.70769 10.0367 6.52503C10.2015 6.09639 10.5888 5.77065 11.3374 5.77065H12.4214V5.7693L12.4219 3.65426C12.4219 3.65426 11.4382 3.48626 10.4978 3.48626C9.24984 3.48626 8.27645 3.96756 7.73301 4.87173C7.42145 5.38969 7.25106 6.04665 7.25106 6.8318V8.72431H5.06884V8.72566L5.06835 11.2105H7.25106V17.2145C3.14209 16.569 0 13.0135 0 8.72431C0 3.97816 3.84816 0.130005 8.5943 0.130005Z" fill="#1877F2"/>
</g>
<defs>
<clipPath id="clip0_1_53">
<rect width="18" height="18" fill="white" transform="translate(0 0.130005)"/>
</clipPath>
</defs>
</svg>
