<svg width="18" height="18" viewBox="0 0 18 18" fill="none" xmlns="http://www.w3.org/2000/svg">
<g clip-path="url(#clip0_1_41)">
<mask id="mask0_1_41" style="mask-type:luminance" maskUnits="userSpaceOnUse" x="0" y="0" width="18" height="19">
<path d="M0 0.130005H18V18.13H0V0.130005Z" fill="white"/>
</mask>
<g mask="url(#mask0_1_41)">
<path d="M18.0041 9.3372C18.0041 8.7254 17.9534 8.1103 17.8455 7.50842H9.18457V10.9742H14.1443C13.9384 12.0919 13.2771 13.0807 12.3089 13.7091V15.9579H15.2678C17.0054 14.3903 18.0041 12.0754 18.0041 9.3372Z" fill="#4285F4"/>
<path d="M9.18102 18.1325C11.6575 18.1325 13.7459 17.3354 15.2676 15.9598L12.3086 13.711C11.4855 14.26 10.4226 14.5708 9.1844 14.5708C6.78889 14.5708 4.75778 12.9867 4.02901 10.8571H0.975586V13.1753C2.53434 16.2144 5.70923 18.1325 9.18102 18.1325Z" fill="#34A853"/>
<path d="M4.0268 10.8555C3.64218 9.73776 3.64218 8.52741 4.0268 7.40964V5.09143H0.976758C-0.325586 7.63452 -0.325586 10.6307 0.976758 13.1737L4.0268 10.8555Z" fill="#FBBC04"/>
<path d="M9.18102 3.69225C10.4901 3.67241 11.7553 4.15523 12.7034 5.04151L15.325 2.47196C13.665 0.944134 11.4618 0.104155 9.18102 0.130611C5.70923 0.130611 2.53434 2.04867 0.975586 5.09111L4.02563 7.40932C4.75103 5.27631 6.78552 3.69225 9.18102 3.69225Z" fill="#EA4335"/>
</g>
</g>
<defs>
<clipPath id="clip0_1_41">
<rect width="18" height="18" fill="white" transform="translate(0 0.130005)"/>
</clipPath>
</defs>
</svg>
