<svg width="17" height="17" viewBox="0 0 17 17" fill="none" xmlns="http://www.w3.org/2000/svg">
<g clip-path="url(#clip0_1_68)">
<path d="M14.348 7.62301H13.155V5.27301C13.1369 4.01923 12.6261 2.82294 11.733 1.94273C10.84 1.06252 9.63642 0.569092 8.3825 0.569092C7.12859 0.569092 5.92504 1.06252 5.032 1.94273C4.13895 2.82294 3.62815 4.01923 3.61 5.27301V7.62301H2.416C2.30605 7.62288 2.19715 7.64443 2.09554 7.68645C1.99393 7.72847 1.90161 7.79012 1.82386 7.86786C1.74611 7.94561 1.68446 8.03794 1.64245 8.13954C1.60043 8.24115 1.57887 8.35005 1.579 8.46001V16.563C1.579 17.026 1.953 17.4 2.416 17.4H14.348C14.458 17.4001 14.5669 17.3786 14.6685 17.3366C14.7701 17.2945 14.8624 17.2329 14.9401 17.1551C15.0179 17.0774 15.0795 16.9851 15.1216 16.8835C15.1636 16.7819 15.1851 16.673 15.185 16.563V8.46001C15.1851 8.35005 15.1636 8.24115 15.1216 8.13954C15.0795 8.03794 15.0179 7.94561 14.9401 7.86786C14.8624 7.79012 14.7701 7.72847 14.6685 7.68645C14.5669 7.64443 14.458 7.62288 14.348 7.62301ZM9.415 14.373C9.43047 14.4358 9.43161 14.5012 9.41834 14.5645C9.40508 14.6278 9.37775 14.6873 9.33837 14.7386C9.299 14.7898 9.24859 14.8316 9.19088 14.8608C9.13317 14.8899 9.06965 14.9057 9.005 14.907H7.76C7.69483 14.9073 7.63048 14.8925 7.57196 14.8638C7.51345 14.8351 7.46235 14.7933 7.42267 14.7416C7.38298 14.6899 7.35577 14.6298 7.34316 14.5658C7.33056 14.5019 7.3329 14.4359 7.35 14.373L7.742 12.859C7.50471 12.7398 7.30553 12.5565 7.16698 12.3299C7.02843 12.1034 6.95604 11.8426 6.958 11.577C6.958 10.775 7.6 10.134 8.401 10.134C9.202 10.134 9.843 10.775 9.843 11.577C9.843 12.147 9.523 12.627 9.06 12.859L9.415 14.373ZM10.768 7.62301H5.996V5.27301C5.996 4.6402 6.24738 4.03331 6.69485 3.58585C7.14231 3.13839 7.7492 2.88701 8.382 2.88701C9.01481 2.88701 9.6217 3.13839 10.0692 3.58585C10.5166 4.03331 10.768 4.6402 10.768 5.27301V7.62301Z" fill="#33AA28"/>
</g>
<defs>
<clipPath id="clip0_1_68">
<rect width="16" height="16" fill="white" transform="translate(0.970001 0.5)"/>
</clipPath>
</defs>
</svg>
