<svg width="50" height="66" viewBox="0 0 50 66" fill="none" xmlns="http://www.w3.org/2000/svg">
<g clip-path="url(#clip0_1_79)">
<path d="M30.63 26.3504C30.63 25.0332 31.6822 23.9497 33.009 23.9497C34.3138 23.9497 35.3631 25.0332 35.3631 26.3504C35.3631 27.6704 34.3109 28.7429 33.009 28.7429C31.682 28.7403 30.63 27.6705 30.63 26.3504ZM23.2433 5.93726H23.2241V9.2208H26.2375V6.03623C27.2731 5.51103 27.9846 4.43842 27.9846 3.19272C27.9763 1.42445 26.5644 0 24.8255 0C23.073 0 21.6582 1.42445 21.6582 3.18996C21.6582 4.37244 22.2984 5.38722 23.2433 5.93726ZM16.6614 28.7403C17.9718 28.7403 19.0376 27.6678 19.0376 26.3478C19.0376 25.0306 17.9718 23.9471 16.6614 23.9471C15.3484 23.9471 14.2825 25.0306 14.2825 26.3478C14.2826 27.6705 15.3457 28.7403 16.6614 28.7403ZM24.8255 66C28.3939 66 31.4265 63.69 32.5886 60.5055H17.068C18.2163 63.69 21.2545 66 24.8255 66ZM0.0943604 56.2677C0.0943604 54.9944 0.827867 53.8999 1.8909 53.3939V39.8145C1.8909 37.1278 3.95658 34.9414 6.56356 34.7573V28.1985C6.56356 28.1985 7.20083 16.2333 17.0735 12.5014C20.0018 11.4015 22.6747 10.9559 24.9986 10.8679C27.3225 10.9586 30.0037 11.4014 32.9236 12.5042C42.7963 16.2223 43.4282 28.2011 43.4282 28.2011V34.7901C46.0461 34.9497 48.1064 37.1359 48.1064 39.8226V53.3939C49.164 53.8999 49.9057 54.9971 49.9057 56.2732C49.9057 58.0332 48.4882 59.4522 46.7466 59.4522C44.9996 59.4522 43.5848 58.0306 43.5848 56.2732C43.5848 54.9971 44.3156 53.9055 45.3731 53.3939V44.3354C44.7798 44.6242 44.126 44.814 43.4337 44.8662V48.0149C43.4556 48.2761 43.4777 48.5291 43.4777 48.7849C43.4777 49.0654 43.4558 49.3239 43.4337 49.6154V49.6924H43.4227C43.0106 54.9284 38.9203 59.158 33.7615 59.7327L33.767 59.7959H24.9986H16.2191L16.2219 59.7327C11.063 59.1524 6.99194 54.9505 6.56342 49.6924H6.55791V49.6154C6.53323 49.3267 6.51944 49.0654 6.51944 48.7849C6.51944 48.5319 6.54136 48.2817 6.55791 48.0149V44.8662C5.86563 44.8112 5.20092 44.6242 4.61577 44.3354V53.3939C5.67604 53.8999 6.41782 54.9971 6.41782 56.2732C6.41782 58.0332 4.99769 59.4522 3.25051 59.4522C1.50622 59.4522 0.0943604 58.0277 0.0943604 56.2677ZM30.2647 39.567C30.2647 38.7146 29.5806 38.0215 28.7455 38.0215C27.9021 38.0215 27.2347 38.7146 27.2347 39.567C27.2347 40.4113 27.9021 41.1015 28.7455 41.1015C29.5862 41.0987 30.2647 40.4084 30.2647 39.567ZM34.017 39.567C34.017 38.7146 33.3275 38.0215 32.4923 38.0215C31.66 38.0215 30.9787 38.7146 30.9787 39.567C30.9787 40.4113 31.6627 41.1015 32.4923 41.1015C33.3248 41.0987 34.017 40.4084 34.017 39.567ZM37.7831 39.567C37.7831 38.7146 37.0963 38.0215 36.2503 38.0215C35.4124 38.0215 34.7231 38.7146 34.7231 39.567C34.7231 40.4113 35.4126 41.1015 36.2503 41.1015C37.0965 41.0987 37.7831 40.4084 37.7831 39.567ZM12.1783 26.7877C12.1783 30.866 15.3401 31.1299 15.3401 31.1299C16.4361 31.4847 18.7711 31.317 19.8177 31.1299C20.7874 30.9704 24.3448 30.6624 24.9051 30.6129C24.9298 30.6129 24.9655 30.6156 24.9931 30.6156C25.0233 30.6156 25.059 30.6129 25.0728 30.6129C25.6469 30.6597 29.1932 30.9704 30.1601 31.1299C31.2232 31.317 33.55 31.4847 34.646 31.1299C34.646 31.1299 37.805 30.8769 37.805 26.7877C37.805 26.7877 37.805 22.2612 34.646 19.5057C31.5775 16.8492 26.9544 16.2661 25.1633 16.2387C25.1331 16.2387 25.1002 16.2387 25.07 16.2387C25.0481 16.2387 25.0151 16.2387 24.9903 16.2387C24.9629 16.2387 24.9299 16.2387 24.8997 16.2387C24.8695 16.2387 24.8421 16.2387 24.82 16.2387C23.0235 16.2661 18.4003 16.8519 15.3319 19.5057C12.1783 22.2612 12.1783 26.7877 12.1783 26.7877Z" fill="#081287"/>
</g>
<defs>
<clipPath id="clip0_1_79">
<rect width="50" height="66" fill="white"/>
</clipPath>
</defs>
</svg>
